<?xml version="1.0" encoding="UTF-8"?>
<svg id="Layer_1" xmlns="http://www.w3.org/2000/svg" viewBox="0 0 40 44.16">
  <defs>
    <style>
      .cls-1 {
        fill: none;
        stroke: #1e1e1e;
        stroke-linecap: round;
        stroke-linejoin: round;
        stroke-width: 4px;
      }
    </style>
  </defs>
  <path class="cls-1" d="M29,16.8L11,6.42M2.54,11.92l17.46,10.1,17.46-10.1M20,42.16v-20.16M38,30V14c0-.7-.19-1.39-.54-2-.35-.61-.86-1.11-1.46-1.46l-14-8c-.61-.35-1.3-.54-2-.54s-1.39.18-2,.54l-14,8c-.61.35-1.11.86-1.46,1.46-.35.61-.54,1.3-.54,2v16c0,.7.19,1.39.54,2,.35.61.86,1.11,1.46,1.46l14,8c.61.35,1.3.54,2,.54s1.39-.18,2-.54l14-8c.61-.35,1.11-.85,1.46-1.46.35-.61.54-1.3.54-2Z"/>
</svg>