<?xml version="1.0" encoding="UTF-8"?>
<svg id="Layer_1" xmlns="http://www.w3.org/2000/svg" viewBox="0 0 29.59 16.22">
  <defs>
    <style>
      .cls-1 {
        fill: #475b49;
      }
    </style>
  </defs>
  <path class="cls-1" d="M6.79,16.22c-1.27,0-2.42-.34-3.44-1.01s-1.84-1.61-2.45-2.81c-.6-1.21-.9-2.62-.9-4.22,0-1.27.18-2.41.55-3.42.38-1.01.9-1.87,1.56-2.58.66-.71,1.44-1.25,2.34-1.62.9-.38,1.87-.56,2.92-.56,1.46,0,2.68.32,3.66.95.99.63,1.76,1.63,2.32,2.99l-2.9.67c-.41-.66-.88-1.17-1.42-1.51-.53-.35-1.13-.53-1.8-.53-.77,0-1.47.23-2.1.68-.63.45-1.14,1.09-1.51,1.93-.38.84-.56,1.84-.56,3,0,1.09.16,2.04.49,2.86.34.82.8,1.45,1.4,1.91.6.46,1.3.68,2.09.68.67,0,1.27-.15,1.8-.44.54-.3.96-.74,1.26-1.3.31-.56.47-1.24.47-2.03h.62c0,1.3-.16,2.42-.47,3.37-.3.95-.78,1.69-1.43,2.21-.65.52-1.48.78-2.5.78ZM10.97,15.89l-.41-3.43v-2.69l-3.5-.07v-1.8h6.22v7.99h-2.3Z"/>
  <path class="cls-1" d="M23.03,16.22c-1.27,0-2.42-.34-3.44-1.01s-1.84-1.61-2.45-2.81c-.6-1.21-.9-2.62-.9-4.22,0-1.27.18-2.41.55-3.42.38-1.01.9-1.87,1.56-2.58.66-.71,1.44-1.25,2.34-1.62.9-.38,1.87-.56,2.92-.56,1.46,0,2.68.32,3.66.95.99.63,1.76,1.63,2.32,2.99l-2.9.67c-.41-.66-.88-1.17-1.42-1.51-.53-.35-1.13-.53-1.8-.53-.77,0-1.47.23-2.1.68-.63.45-1.14,1.09-1.51,1.93-.38.84-.56,1.84-.56,3,0,1.09.16,2.04.49,2.86.34.82.8,1.45,1.4,1.91.6.46,1.3.68,2.09.68.67,0,1.27-.15,1.8-.44.54-.3.96-.74,1.26-1.3.31-.56.47-1.24.47-2.03h.62c0,1.3-.16,2.42-.47,3.37-.3.95-.78,1.69-1.43,2.21-.65.52-1.48.78-2.5.78ZM27.21,15.89l-.41-3.43v-2.69l-3.5-.07v-1.8h6.22v7.99h-2.3Z"/>
</svg>