<?xml version="1.0" encoding="UTF-8"?>
<svg id="Layer_1" xmlns="http://www.w3.org/2000/svg" viewBox="0 0 45.81 40.46">
  <defs>
    <style>
      .cls-1 {
        fill: none;
        stroke: #1e1e1e;
        stroke-linecap: round;
        stroke-linejoin: round;
        stroke-width: 4px;
      }
    </style>
  </defs>
  <path class="cls-1" d="M40.58,5.22c-1.02-1.02-2.23-1.83-3.57-2.39-1.33-.55-2.77-.84-4.21-.84s-2.88.28-4.21.84c-1.33.55-2.55,1.36-3.57,2.39l-2.12,2.12-2.12-2.12c-2.06-2.06-4.86-3.22-7.78-3.22s-5.72,1.16-7.78,3.22c-2.06,2.06-3.22,4.86-3.22,7.78s1.16,5.72,3.22,7.78l17.68,17.68,17.68-17.68c1.02-1.02,1.83-2.23,2.39-3.57.55-1.33.84-2.77.84-4.21s-.28-2.88-.84-4.21c-.55-1.33-1.36-2.55-2.39-3.57Z"/>
</svg>