<?xml version="1.0" encoding="UTF-8"?>
<svg id="Layer_1" xmlns="http://www.w3.org/2000/svg" xmlns:xlink="http://www.w3.org/1999/xlink" viewBox="0 0 37.14 37.14">
  <defs>
    <style>
      .cls-1 {
        fill: none;
      }

      .cls-2 {
        clip-path: url(#clippath);
      }
    </style>
    <clipPath id="clippath">
      <rect class="cls-1" width="37.14" height="37.14"/>
    </clipPath>
  </defs>
  <g class="cls-2">
    <path d="M18.57,3.35c4.96,0,5.55.02,7.5.11,5.03.23,7.38,2.62,7.61,7.61.09,1.96.11,2.55.11,7.5s-.02,5.55-.11,7.5c-.23,4.99-2.57,7.38-7.61,7.61-1.96.09-2.54.11-7.5.11s-5.55-.02-7.5-.11c-5.04-.23-7.38-2.63-7.61-7.61-.09-1.96-.11-2.54-.11-7.5s.02-5.54.11-7.5c.23-4.99,2.57-7.38,7.61-7.61,1.96-.09,2.55-.11,7.5-.11ZM18.57,0c-5.04,0-5.67.02-7.65.11C4.17.42.42,4.16.11,10.91c-.09,1.98-.11,2.61-.11,7.66s.02,5.68.11,7.66c.31,6.74,4.05,10.49,10.8,10.8,1.98.09,2.61.11,7.66.11s5.68-.02,7.66-.11c6.74-.31,10.49-4.05,10.8-10.8.09-1.98.11-2.61.11-7.66s-.02-5.67-.11-7.65C36.72,4.18,32.97.42,26.23.11c-1.98-.09-2.61-.11-7.66-.11ZM18.57,9.03c-5.27,0-9.53,4.27-9.53,9.53s4.27,9.54,9.53,9.54,9.53-4.27,9.53-9.54-4.27-9.53-9.53-9.53ZM18.57,24.76c-3.42,0-6.19-2.77-6.19-6.19s2.77-6.19,6.19-6.19,6.19,2.77,6.19,6.19-2.77,6.19-6.19,6.19ZM28.48,6.43c-1.23,0-2.23,1-2.23,2.23s1,2.23,2.23,2.23,2.23-1,2.23-2.23-1-2.23-2.23-2.23Z"/>
  </g>
</svg>