<?xml version="1.0" encoding="UTF-8"?>
<svg id="Layer_1" xmlns="http://www.w3.org/2000/svg" viewBox="0 0 37.74 38.73">
  <defs>
    <style>
      .cls-1 {
        fill: #f58d07;
      }

      .cls-2 {
        fill: #f5f5f5;
      }
    </style>
  </defs>
  <path class="cls-1" d="M0,18.87C0,8.45,8.45,0,18.87,0s18.87,8.45,18.87,18.87v.99c0,10.42-8.45,18.87-18.87,18.87S0,30.28,0,19.86v-.99Z"/>
  <path class="cls-2" d="M16.29,23.83v-8.75h2.93c.97,0,1.73.24,2.25.73.53.49.79,1.16.79,2.01s-.26,1.51-.79,2c-.53.48-1.28.72-2.25.72h-1.61v3.29h-1.32ZM17.61,19.41h1.61c.56,0,.98-.14,1.27-.43.29-.29.43-.67.43-1.15s-.14-.87-.43-1.17c-.29-.3-.71-.45-1.27-.45h-1.61v3.19Z"/>
</svg>