<?xml version="1.0" encoding="UTF-8"?>
<svg id="Layer_1" xmlns="http://www.w3.org/2000/svg" viewBox="0 0 39 39">
  <defs>
    <style>
      .cls-1 {
        fill: #f8d173;
      }

      .cls-2 {
        fill: #f5f5f5;
      }
    </style>
  </defs>
  <path class="cls-1" d="M0,19.5C0,8.73,8.73,0,19.5,0s19.5,8.73,19.5,19.5-8.73,19.5-19.5,19.5S0,30.27,0,19.5Z"/>
  <path class="cls-2" d="M19.68,24.18c-.78,0-1.45-.19-2.02-.57-.56-.38-1-.92-1.31-1.61-.31-.7-.46-1.51-.46-2.45,0-.99.16-1.81.49-2.48.33-.67.78-1.18,1.35-1.52.58-.35,1.23-.52,1.95-.52.97,0,1.75.24,2.32.73.58.48.96,1.1,1.15,1.87l-1.4.27c-.17-.51-.43-.92-.79-1.22-.36-.31-.79-.46-1.28-.46-.43,0-.83.12-1.19.37-.36.25-.65.62-.86,1.12-.22.49-.32,1.11-.32,1.85,0,.68.09,1.28.27,1.8.18.51.44.91.79,1.2.35.29.79.43,1.31.43.64,0,1.15-.17,1.51-.51.37-.35.55-.79.55-1.35h1.42c0,.65-.15,1.2-.44,1.65-.29.45-.69.8-1.21,1.04-.52.24-1.13.37-1.84.37Z"/>
</svg>