<?xml version="1.0" encoding="UTF-8"?>
<svg id="Layer_1" xmlns="http://www.w3.org/2000/svg" viewBox="0 0 114.67 17.85">
  <defs>
    <style>
      .cls-1 {
        stroke: #000;
        stroke-linecap: round;
        stroke-linejoin: round;
        stroke-width: 2px;
      }
    </style>
  </defs>
  <path class="cls-1" d="M9.33,1l2.57,5.22,5.76.84-4.17,4.06.98,5.73-5.15-2.71-5.15,2.71.98-5.73L1,7.06l5.76-.84,2.57-5.22Z"/>
  <path class="cls-1" d="M33.33,1l2.58,5.22,5.76.84-4.17,4.06.98,5.73-5.15-2.71-5.15,2.71.98-5.73-4.17-4.06,5.76-.84,2.58-5.22Z"/>
  <path class="cls-1" d="M57.33,1l2.58,5.22,5.76.84-4.17,4.06.98,5.73-5.15-2.71-5.15,2.71.98-5.73-4.17-4.06,5.76-.84,2.58-5.22Z"/>
  <path class="cls-1" d="M81.33,1l2.57,5.22,5.76.84-4.17,4.06.98,5.73-5.15-2.71-5.15,2.71.98-5.73-4.17-4.06,5.76-.84,2.57-5.22Z"/>
  <path class="cls-1" d="M105.33,1l2.57,5.22,5.76.84-4.17,4.06.98,5.73-5.15-2.71-5.15,2.71.98-5.73-4.17-4.06,5.76-.84,2.57-5.22Z"/>
</svg>